<svg xmlns="http://www.w3.org/2000/svg" xmlns:xlink="http://www.w3.org/1999/xlink" fill="none" version="1.1" width="58" height="68" viewBox="0 0 58 68"><path d="M2,50L29,66L56,50L56,18L29,2L2,18L2,50Z" fill="#171717" fill-opacity="1"/><path d="M0,47.562317C0,49.691734,1.1286401,51.661617,2.9656825,52.738503L25.965681,66.22126C27.839451,67.319679,30.160547,67.319679,32.034317,66.22126L55.034313,52.738503C56.871357,51.661617,57.999996,49.691734,57.999996,47.562317L57.999996,20.437683C57.999996,18.308268,56.871357,16.338383,55.034313,15.261496L32.034317,1.7787378C30.160547,0.68032134,27.839451,0.68032134,25.965681,1.7787378L2.9656825,15.261497C1.1286401,16.338383,0,18.308268,0,20.437683L0,47.562317Z" fill="#FFFFFF" fill-opacity="1"/><path d="M43.961781,25.257143L17.019108,9.1428571L26.954195,3.2196819999999997C28.214787,2.46813309,29.785719,2.46727568,31.047131,3.2174481999999998L54.04459,16.894244C55.257,17.615276,55.999996,18.921602,55.999996,20.332214L55.999996,47.653763C55.999996,49.041054,55.281178,50.329288,54.100574,51.057816L43.961781,57.314285L43.961781,25.257143ZM2,20.29257L2,47.718319C2,49.132492,2.7467200800000002,50.441563,3.9639908999999998,51.161381L27.004787,64.786259C28.269321,65.53402299999999,29.841997,65.528442,31.101192,64.771721L41.038216,58.799999L41.038216,40.971428L29.057323,34.057144L29.057323,19.828571L14.095541,10.9142857L3.9781361,16.841184C2.75286794,17.558961,2,18.87254,2,20.29257ZM4.9808917,21.584703L4.9808917,48.171429L29.057323,62.342857L29.057323,48.171429L17.019108,41.085716L17.019108,26.971428L6.4911752,20.724695C5.8245797,20.329172,4.9808917,20.809597,4.9808917,21.584703Z" fill-rule="evenodd" fill="#171717" fill-opacity="1"/></svg>