<svg xmlns="http://www.w3.org/2000/svg" xmlns:xlink="http://www.w3.org/1999/xlink" fill="none" version="1.1" width="332" height="68" viewBox="0 0 332 68"><path d="M2,50L29,66L56,50L56,18L29,2L2,18L2,50Z" fill="#171717" fill-opacity="1"/><path d="M0,51L28.999998,68L57.999996,51L57.999996,17L28.999998,0L0,17L0,51Z" fill="#FFFFFF" fill-opacity="1"/><path d="M43.961781,25.257143L17.019108,9.1428571L28.999998,2L55.999996,18.057142L55.999996,49.885715L43.961781,57.314285L43.961781,25.257143ZM2,18L2,50L29.057323,66L41.038216,58.799999L41.038216,40.971428L29.057323,34.057144L29.057323,19.828571L14.095541,10.9142857L2,18ZM4.9808917,19.828571L4.9808917,48.171429L29.057323,62.342857L29.057323,48.171429L17.019108,41.085716L17.019108,26.971428L4.9808917,19.828571Z" fill-rule="evenodd" fill="#171717" fill-opacity="1"/><g><path d="M126.03200100000001,55.591999L122.896004,63.976002Q112.78399999999999,61.48,106.73599999999999,58.472Q100.688004,55.464001,97.360001,50.855999Q94.16000199999999,54.888,88.016001,58.056Q81.872001,61.223999,72.3360004,63.976002L68.0480001,55.720001Q81.29599999999999,52.903999,87.216002,48.711998Q93.136002,44.52,93.136002,38.568001L93.136002,34.855999L79.312,34.855999Q81.360001,36.456001,83.984001,38.888Q86.608002,41.32,88.336,43.112L82.832001,49.512001Q80.912001,47.271999,78.032001,44.456001Q75.1520004,41.639999,72.9760003,39.848L77.584001,34.855999L73.8720002,34.855999L73.8720002,27.751999L111.376003,27.751999L111.376003,24.68L75.9200001,24.68L75.9200001,18.343998L111.376003,18.343998L111.376003,15.207996L74.44800000000001,15.207996L74.44800000000001,7.7839966L119.888004,7.7839966L119.888004,34.855999L116.688004,34.855999L121.616001,39.720001Q119.56800100000001,41.959999,116.62400099999999,44.776001Q113.680004,47.591999,111.376003,49.512001L105.808002,43.624001Q109.840004,40.167999,115.024002,34.855999L101.26400000000001,34.855999L101.26400000000001,39.528L101.26400000000001,40.487999Q102.992001,46.056,108.720001,49.703999Q114.448002,53.352001,126.03200100000001,55.591999ZM189.328,50.535999Q188.752,53.543999,187.40800000000002,56.360001Q185.48801,60.647999,183.44,62.279999Q181.39201,63.911999,178.32001,63.911999Q174.99200000000002,63.911999,171.98401,61.703999Q168.976,59.495998,166.99200000000002,54.824001L166.672,54.056Q160.720001,57.063999,153.104004,59.751999L149.584,51.304001Q157.584,48.743999,164.048004,45.608002Q163.344002,42.599998,162.44799799999998,37.287998L156.688004,37.991997L156.88000499999998,38.248001L151.440002,43.815998Q150.608002,42.472,148.048004,39.015999L148.048004,63.655998L139.792,63.655998L139.792,40.104Q136.78400399999998,45.992001,133.64800300000002,50.408001L130.192001,41.639999Q132.496002,38.248001,134.992004,33.415998Q137.487999,28.583998,139.279999,24.039997L133.008003,24.039997L133.008003,15.848L139.792,15.848L139.792,5.7999992L148.048004,6.1199989L148.048004,15.848L153.55200200000002,15.848L153.55200200000002,24.039997L148.048004,24.039997L148.048004,31.335999L149.90400699999998,29.735998Q151.760002,31.591999,154.320007,34.792L153.872002,30.375999L161.424004,29.48Q161.167999,26.599998,160.975998,25.319998L155.344002,25.959999L154.704002,18.087997L160.400002,17.447998L159.695999,5.6719971000000005L168.01601,5.927997599999999Q168.07999999999998,9.5119972,168.464,16.615997L176.65600999999998,15.719997Q173.51999999999998,12.071999,170.64,9.3839989L175.56801000000002,5.159996Q179.98401,9.2559967,182.8,12.455997L179.92001,15.399998L186.256,14.695999L186.832,22.503998L169.10399999999998,24.424L169.48801,28.519999L187.15201000000002,26.407999L187.79201,34.152L182.608,34.792L186.76801,40.040001Q181.51999999999998,45.351997,174.16,49.896Q174.288,50.279999,174.672,51.048Q175.56801000000002,53.032001,176.56001,53.896Q177.55200000000002,54.759998,178.38400000000001,54.759998Q179.28,54.759998,179.856,54.056Q180.43201,53.352001,181.136,51.239998Q181.96800000000002,48.743999,182.224,46.695999L189.328,50.535999ZM170.576,36.264Q171.15201000000002,39.655998,171.60001,41.639999Q177.04001,38.311996,180.688,35.047997L170.576,36.264Z" fill="#FFFFFF" fill-opacity="1"/></g><g><rect x="200" y="2" width="132" height="64" rx="8" fill="#FFFFFF" fill-opacity="1"/><g><path d="M210.592,50.827999L210.592,43.484001Q212.2719998,44.012001,214.888,44.396Q217.5039997,44.779999,219.808001,44.779999Q221.92,44.779999,223,44.467999Q224.07999999999998,44.155998,224.512001,43.459999Q224.944,42.764,224.944,41.467999Q224.944,40.411999,224.559999,39.764Q224.17600099999999,39.116001,223.024,38.588001Q221.872,38.059998,219.568,37.531998Q215.8720002,36.667999,213.9520001,35.563999Q212.0320001,34.459999,211.2639999,32.66Q210.4960001,30.860001,210.4960001,27.788Q210.4960001,22.412001,213.7119999,20.059999Q216.9280005,17.708,223.12,17.708Q228.208,17.708,231.712,18.908001L231.712,25.771999Q230.559999,25.34,228.016001,24.98Q225.472,24.619999,223.504,24.619999Q220.912,24.619999,219.808001,25.268Q218.704,25.916,218.704,27.5Q218.704,28.459999,219.088,28.987999Q219.472,29.516001,220.552,29.948Q221.632,30.379999,223.936,30.955999Q228.016001,31.964001,230.032,33.284Q232.048,34.604,232.743999,36.5Q233.440001,38.396,233.440001,41.708Q233.440001,46.844002,230.392,49.411999Q227.344,51.98,220.24,51.98Q217.6000004,51.98,215.0320001,51.644001Q212.4640002,51.307999,210.592,50.827999ZM262.384003,33.739998L262.384003,51.5L255.088001,51.5L254.416,48.812Q253.599998,50.155998,251.608002,51.068001Q249.61600099999998,51.98,246.544003,51.98Q242.224003,51.98,239.944,50.012001Q237.66400099999998,48.043999,237.66400099999998,44.012001Q237.66400099999998,39.596001,240.280003,37.723999Q242.89600000000002,35.852001,248.464001,35.852001L254.32,35.852001L254.32,35.323997Q254.27200299999998,33.931999,253.816002,33.211998Q253.360001,32.492001,252.279999,32.204Q251.200001,31.916,249.136002,31.916Q246.16,31.916,243.71200199999998,32.396L243.71200199999998,25.58Q246.688004,25.148001,250.192001,25.148001Q256.768002,25.148001,259.576004,27.212Q262.384003,29.275999,262.384003,33.739998ZM248.89600000000002,45.883999Q250.864002,45.883999,252.304001,45.259998Q253.744003,44.636002,254.32,43.580002L254.32,41.132L249.856003,41.132Q247.45600100000001,41.132,246.52,41.66Q245.584,42.188,245.584,43.675999Q245.584,44.875999,246.375999,45.380001Q247.167999,45.883999,248.89600000000002,45.883999ZM292.192001,33.739998L292.192001,51.5L284.89599599999997,51.5L284.223999,48.812Q283.407997,50.155998,281.416,51.068001Q279.423996,51.98,276.351997,51.98Q272.031998,51.98,269.751999,50.012001Q267.472,48.043999,267.472,44.012001Q267.472,39.596001,270.088001,37.723999Q272.704002,35.852001,278.272003,35.852001L284.127998,35.852001L284.127998,35.323997Q284.080002,33.931999,283.624001,33.211998Q283.167999,32.492001,282.087997,32.204Q281.00800300000003,31.916,278.944,31.916Q275.968002,31.916,273.519997,32.396L273.519997,25.58Q276.496002,25.148001,280,25.148001Q286.576004,25.148001,289.384003,27.212Q292.192001,29.275999,292.192001,33.739998ZM278.704002,45.883999Q280.67199700000003,45.883999,282.11199999999997,45.259998Q283.552002,44.636002,284.127998,43.580002L284.127998,41.132L279.664001,41.132Q277.264,41.132,276.32800299999997,41.66Q275.391998,42.188,275.391998,43.675999Q275.391998,44.875999,276.183998,45.380001Q276.975998,45.883999,278.704002,45.883999ZM298.192001,50.827999L298.192001,43.484001Q299.872002,44.012001,302.487999,44.396Q305.103996,44.779999,307.407997,44.779999Q309.52,44.779999,310.6,44.467999Q311.68,44.155998,312.11199999999997,43.459999Q312.544,42.764,312.544,41.467999Q312.544,40.411999,312.15999999999997,39.764Q311.776,39.116001,310.624,38.588001Q309.472,38.059998,307.167999,37.531998Q303.472,36.667999,301.552002,35.563999Q299.631996,34.459999,298.863998,32.66Q298.096001,30.860001,298.096001,27.788Q298.096001,22.412001,301.311996,20.059999Q304.528,17.708,310.72,17.708Q315.808,17.708,319.312,18.908001L319.312,25.771999Q318.15999999999997,25.34,315.616,24.98Q313.072,24.619999,311.104,24.619999Q308.512,24.619999,307.407997,25.268Q306.30400099999997,25.916,306.30400099999997,27.5Q306.30400099999997,28.459999,306.687996,28.987999Q307.071999,29.516001,308.152,29.948Q309.23199,30.379999,311.536,30.955999Q315.616,31.964001,317.632,33.284Q319.64799,34.604,320.34399,36.5Q321.04,38.396,321.04,41.708Q321.04,46.844002,317.992,49.411999Q314.944,51.98,307.839996,51.98Q305.199997,51.98,302.631996,51.644001Q300.063995,51.307999,298.192001,50.827999Z" fill="#171717" fill-opacity="1"/></g></g></svg>