<svg xmlns="http://www.w3.org/2000/svg" xmlns:xlink="http://www.w3.org/1999/xlink" fill="none" version="1.1" width="306" height="68" viewBox="0 0 306 68"><path d="M2,50L29,66L56,50L56,18L29,2L2,18L2,50Z" fill="#171717" fill-opacity="1"/><path d="M0,47.562317C0,49.691734,1.1286401,51.661617,2.9656825,52.738503L25.965681,66.22126C27.839451,67.319679,30.160547,67.319679,32.034317,66.22126L55.034313,52.738503C56.871357,51.661617,57.999996,49.691734,57.999996,47.562317L57.999996,20.437683C57.999996,18.308268,56.871357,16.338383,55.034313,15.261496L32.034317,1.7787378C30.160547,0.68032134,27.839451,0.68032134,25.965681,1.7787378L2.9656825,15.261497C1.1286401,16.338383,0,18.308268,0,20.437683L0,47.562317Z" fill="#FFFFFF" fill-opacity="1"/><path d="M43.961781,25.257143L17.019108,9.1428571L26.954195,3.2196819999999997C28.214787,2.46813309,29.785719,2.46727568,31.047131,3.2174481999999998L54.04459,16.894244C55.257,17.615276,55.999996,18.921602,55.999996,20.332214L55.999996,47.653763C55.999996,49.041054,55.281178,50.329288,54.100574,51.057816L43.961781,57.314285L43.961781,25.257143ZM2,20.29257L2,47.718319C2,49.132492,2.7467200800000002,50.441563,3.9639908999999998,51.161381L27.004787,64.786259C28.269321,65.53402299999999,29.841997,65.528442,31.101192,64.771721L41.038216,58.799999L41.038216,40.971428L29.057323,34.057144L29.057323,19.828571L14.095541,10.9142857L3.9781361,16.841184C2.75286794,17.558961,2,18.87254,2,20.29257ZM4.9808917,21.584703L4.9808917,48.171429L29.057323,62.342857L29.057323,48.171429L17.019108,41.085716L17.019108,26.971428L6.4911752,20.724695C5.8245797,20.329172,4.9808917,20.809597,4.9808917,21.584703Z" fill-rule="evenodd" fill="#171717" fill-opacity="1"/><g><path d="M92.191999,51.768002Q87.488,51.768002,83.816,49.655998Q80.1440001,47.543999,78.0560002,43.584Q75.9680001,39.624001,75.9680001,34.007999Q75.9680001,28.584,77.96,24.576Q79.9520001,20.567999,83.6479998,18.360001Q87.344,16.152,92.336,16.152Q99.200001,16.152,103.016001,19.511999Q106.83200099999999,22.872,107.936001,29.16L99.248001,29.496Q98.719999,26.424,96.944,24.695999Q95.167999,22.968,92.336,22.968Q89.84,22.968,88.088,24.360001Q86.336,25.751999,85.44800000000001,28.247999Q84.56,30.743999,84.56,34.007999Q84.56,37.368,85.496,39.816002Q86.432,42.264,88.16,43.608002Q89.888,44.952,92.288,44.952Q95.408001,44.952,97.112,43.104Q98.816,41.256001,99.29599999999999,37.992001L108.03200100000001,38.327999Q107.312,42.599998,105.29599999999999,45.599998Q103.280001,48.599998,100.016001,50.183998Q96.752001,51.768002,92.191999,51.768002ZM112.256001,51L112.256001,16.919998L120.512001,16.919998L120.512001,51L112.256001,51ZM134.144001,51.576Q130.112,51.576,127.52000000000001,49.703999Q124.928001,47.832001,124.928001,44.52Q124.928001,41.112,127.13600199999999,39.239998Q129.344002,37.368,133.568001,36.503998L141.584,34.872002Q141.584,32.615999,140.600006,31.440001Q139.615997,30.264,137.792,30.264Q135.968002,30.264,134.936001,31.152Q133.903999,32.039999,133.61600099999998,33.671999L125.360001,33.384001Q126.12800200000001,28.92,129.344002,26.76Q132.560001,24.6,137.792,24.6Q143.840004,24.6,146.840004,27.336Q149.840004,30.072001,149.840004,35.496002L149.840004,43.655998Q149.840004,44.855999,150.248001,45.239998Q150.656006,45.624001,151.37599899999998,45.624001L152,45.624001L152,51Q151.615997,51.144001,150.751999,51.240002Q149.888,51.335999,149.072006,51.335999Q147.584,51.335999,146.192001,50.832001Q144.800003,50.327999,143.888,49.007999Q142.975998,47.688,142.975998,45.192001L143.600006,45.816002Q143.120003,47.543999,141.896004,48.863998Q140.671997,50.183998,138.751999,50.880001Q136.832001,51.576,134.144001,51.576ZM136.304001,46.200001Q137.84,46.200001,139.04000100000002,45.576Q140.240005,44.952,140.912003,43.751999Q141.584,42.552002,141.584,40.776001L141.584,39.720001L136.592003,40.872002Q135.104004,41.208,134.264,41.903999Q133.424004,42.599998,133.424004,43.751999Q133.424004,44.903999,134.144001,45.552002Q134.864002,46.200001,136.304001,46.200001ZM159.295998,51L151.711998,25.176001L159.91999800000002,25.176001L163.856003,41.304001L168.127998,25.176001L174.56,25.176001L178.88,41.304001L182.81599,25.176001L191.024,25.176001L183.44,51L175.808,51L171.344002,35.975998L166.928001,51L159.295998,51ZM209.45599,51.768002Q204.752,51.768002,201.07999999999998,49.655998Q197.40800000000002,47.543999,195.32,43.584Q193.232,39.624001,193.232,34.007999Q193.232,28.584,195.224,24.576Q197.216,20.567999,200.912,18.360001Q204.608,16.152,209.60001,16.152Q216.464,16.152,220.28,19.511999Q224.09601,22.872,225.2,29.16L216.51199,29.496Q215.98399,26.424,214.20801,24.695999Q212.43201,22.968,209.60001,22.968Q207.104,22.968,205.35201,24.360001Q203.60001,25.751999,202.71201,28.247999Q201.824,30.743999,201.824,34.007999Q201.824,37.368,202.75999,39.816002Q203.696,42.264,205.424,43.608002Q207.15201,44.952,209.552,44.952Q212.672,44.952,214.37601,43.104Q216.08,41.256001,216.56,37.992001L225.29601,38.327999Q224.576,42.599998,222.56,45.599998Q220.54401,48.599998,217.28,50.183998Q214.01601,51.768002,209.45599,51.768002ZM241.76001,51.576Q237.68001,51.576,234.632,49.896Q231.584,48.216,229.88,45.192001Q228.17601,42.167999,228.17601,38.088001Q228.17601,34.007999,229.88,30.983999Q231.584,27.959999,234.632,26.280001Q237.68001,24.6,241.76001,24.6Q245.84001,24.6,248.86401,26.280001Q251.888,27.959999,253.59201,30.983999Q255.29601,34.007999,255.29601,38.088001Q255.29601,42.167999,253.59201,45.192001Q251.888,48.216,248.86401,49.896Q245.84001,51.576,241.76001,51.576ZM241.76001,45.48Q244.16,45.48,245.48001,43.560001Q246.8,41.639999,246.8,38.088001Q246.8,34.584,245.48001,32.639999Q244.16,30.695999,241.76001,30.695999Q239.31201,30.695999,237.992,32.639999Q236.67201,34.584,236.67201,38.088001Q236.67201,41.639999,237.992,43.560001Q239.31201,45.48,241.76001,45.48ZM259.37599,51L259.37599,25.176001L267.29601,25.176001L267.584,33L266.95999,32.903999Q267.632,28.775999,269.216,26.976Q270.8,25.176001,273.632,25.176001L275.88800000000003,25.176001L275.88800000000003,31.848L273.584,31.848Q271.52,31.848,270.224,32.327999Q268.92799,32.808001000000004,268.28,33.888000000000005Q267.632,34.968002,267.632,36.84L267.632,51L259.37599,51ZM290.72,51.576Q286.68799,51.576,283.664,49.896Q280.64,48.216,278.95999,45.192001Q277.28,42.167999,277.28,38.088001Q277.28,34.007999,278.95999,31.007999Q280.64,28.007999,283.64,26.303999Q286.64,24.6,290.672,24.6Q294.70399,24.6,297.65599,26.303999Q300.608,28.007999,302.192,31.176001Q303.776,34.344002,303.776,38.711998L303.776,40.248001L285.82399,40.248001Q285.96799,42.936001,287.336,44.256001Q288.70399,45.576,290.86400000000003,45.576Q292.496,45.576,293.59999,44.928001Q294.70399,44.279999,295.18399,42.792L303.44,43.271999Q302.384,47.304001,298.976,49.439999Q295.56799,51.576,290.72,51.576ZM285.82399,35.543999L295.424,35.543999Q295.328,33,294.03200000000004,31.728001Q292.73599,30.455999,290.672,30.455999Q288.70399,30.455999,287.384,31.799999Q286.06399999999996,33.143999,285.82399,35.543999Z" fill="#171717" fill-opacity="1"/></g></svg>